<?xml version="1.0" standalone="no"?>
<!DOCTYPE svg PUBLIC "-//W3C//DTD SVG 20010904//EN"
 "http://www.w3.org/TR/2001/REC-SVG-20010904/DTD/svg10.dtd">
<svg version="1.0" xmlns="http://www.w3.org/2000/svg"
 width="1637.000000pt" height="1637.000000pt" viewBox="0 0 1637.000000 1637.000000"
 preserveAspectRatio="xMidYMid meet">
<metadata>
Created by potrace 1.11, written by Peter Selinger 2001-2013
</metadata>
<g transform="translate(0.000000,1637.000000) scale(0.100000,-0.100000)"
fill="#000000" stroke="none">
<path d="M3637 15574 c-1 -1 -40 -5 -87 -8 -47 -3 -94 -8 -105 -10 -11 -2 -42
-7 -68 -10 -27 -4 -59 -10 -70 -12 -12 -3 -35 -7 -52 -10 -50 -8 -174 -44
-270 -76 -469 -160 -851 -527 -1059 -1020 -57 -133 -94 -231 -100 -260 -2 -13
-13 -51 -24 -85 -11 -35 -18 -63 -16 -63 2 0 -3 -18 -11 -40 -8 -22 -14 -43
-14 -45 1 -6 -35 -164 -51 -225 -11 -42 -47 -205 -53 -240 -3 -14 -10 -43 -15
-65 -6 -22 -13 -56 -16 -75 -3 -19 -8 -46 -11 -60 -3 -14 -7 -35 -9 -48 -3
-13 -7 -31 -10 -40 -3 -9 -7 -33 -10 -52 -3 -19 -8 -46 -11 -60 -3 -14 -8 -40
-11 -59 -3 -18 -8 -43 -10 -55 -3 -11 -7 -34 -9 -51 -3 -16 -7 -41 -10 -55 -6
-28 -14 -71 -21 -115 -2 -16 -9 -55 -14 -85 -5 -30 -12 -73 -15 -95 -3 -23 -8
-52 -10 -65 -3 -14 -7 -43 -10 -65 -3 -22 -7 -49 -9 -61 -2 -12 -7 -45 -11
-75 -6 -51 -9 -72 -19 -136 -5 -26 -14 -103 -21 -163 -1 -14 -5 -45 -9 -70 -3
-25 -8 -67 -11 -95 -3 -27 -8 -70 -10 -95 -3 -25 -8 -65 -10 -90 -3 -24 -7
-65 -10 -90 -2 -25 -7 -76 -10 -115 -3 -38 -8 -90 -10 -115 -2 -25 -7 -76 -10
-115 -3 -38 -7 -95 -10 -125 -28 -349 -40 -716 -40 -1270 1 -566 9 -827 40
-1250 13 -180 20 -255 30 -350 3 -25 7 -70 10 -100 3 -30 7 -71 10 -90 3 -19
7 -60 10 -90 3 -30 7 -66 10 -80 2 -14 6 -50 10 -81 3 -31 7 -66 10 -77 2 -12
6 -45 9 -74 4 -29 8 -62 10 -73 2 -11 7 -40 10 -65 3 -25 8 -56 11 -70 3 -14
8 -45 10 -70 3 -25 8 -52 10 -60 3 -8 7 -32 11 -54 3 -21 8 -48 10 -60 2 -11
6 -32 9 -46 3 -14 7 -36 10 -50 3 -14 8 -38 11 -54 2 -16 7 -32 9 -36 2 -4 7
-20 9 -37 3 -16 17 -68 31 -114 14 -46 27 -88 28 -94 8 -29 51 -154 62 -180 7
-16 34 -82 60 -145 51 -121 217 -459 280 -570 21 -36 49 -85 63 -110 14 -25
43 -74 65 -110 22 -36 63 -104 93 -152 82 -135 358 -547 395 -592 5 -6 53 -72
107 -146 329 -455 904 -1152 1305 -1580 411 -440 773 -795 1072 -1055 38 -33
90 -78 115 -100 98 -87 363 -298 515 -411 182 -135 552 -384 571 -384 7 0 14
-4 16 -9 8 -21 482 -274 653 -349 91 -39 306 -122 318 -122 7 0 17 -3 21 -7 4
-5 11 -8 14 -8 4 -1 36 -10 72 -22 124 -40 241 -71 297 -78 11 -2 29 -6 40 -9
10 -3 32 -7 48 -10 17 -3 46 -8 65 -11 194 -34 460 -38 695 -11 56 7 120 17
138 22 10 3 30 7 45 9 15 3 37 7 50 10 12 3 31 7 43 10 11 2 29 7 39 10 10 3
27 7 37 9 10 2 36 9 58 15 22 6 43 9 46 8 3 -1 13 4 22 12 10 7 17 11 17 8 0
-6 181 54 235 77 17 8 41 17 55 21 14 4 43 16 65 25 22 10 69 31 105 46 75 32
368 179 450 225 160 90 480 292 587 371 17 13 41 30 53 38 130 87 428 320 645
504 872 738 1947 1933 2678 2978 64 92 117 172 117 177 0 6 4 11 8 11 5 0 19
19 32 43 13 23 26 44 30 47 6 4 72 107 178 276 18 28 32 56 32 62 0 5 3 12 8
14 7 3 61 92 118 193 15 28 36 66 47 85 53 95 175 339 171 343 -2 2 2 10 11
17 8 7 15 17 15 22 0 5 9 29 20 54 45 100 59 133 92 219 30 75 58 154 63 175
1 3 5 12 8 20 9 20 65 218 72 253 3 15 7 39 10 55 3 15 8 34 10 42 2 8 7 31
10 50 3 19 8 46 10 60 10 49 15 75 20 110 3 20 7 47 10 60 3 13 7 42 10 65 3
22 8 51 10 65 3 14 7 41 9 60 3 19 7 49 10 65 5 32 12 86 21 170 3 28 8 61 10
75 5 31 15 122 20 175 2 22 6 58 9 80 3 22 8 72 11 110 4 39 9 88 11 110 6 59
15 184 29 395 37 539 41 1520 10 2035 -15 251 -18 288 -29 439 -5 64 -8 91
-21 239 -16 183 -17 191 -29 292 -6 45 -12 105 -21 185 -3 30 -8 66 -10 80 -5
34 -13 96 -20 150 -2 25 -7 54 -9 65 -2 11 -7 45 -10 76 -4 31 -9 67 -11 80
-3 13 -7 42 -10 64 -3 22 -7 51 -10 65 -2 13 -7 42 -10 65 -3 22 -10 66 -16
97 -6 32 -12 70 -15 85 -8 55 -14 88 -19 113 -5 24 -18 99 -30 165 -2 17 -7
41 -10 55 -3 14 -8 41 -11 60 -3 19 -7 43 -10 52 -6 21 -13 53 -20 98 -3 19
-7 37 -9 40 -2 3 -6 25 -10 49 -3 24 -10 54 -15 67 -5 13 -8 24 -5 24 2 0 -1
15 -6 33 -5 17 -11 43 -14 57 -3 14 -7 36 -11 50 -3 14 -10 43 -14 65 -5 22
-12 51 -15 65 -3 14 -8 36 -11 50 -3 14 -21 86 -40 160 -19 74 -36 142 -39
151 -26 111 -106 319 -178 464 -120 239 -309 480 -477 608 -30 23 -57 45 -60
48 -26 30 -340 209 -340 194 0 -3 -10 1 -22 9 -19 11 -91 39 -108 41 -3 0 -18
6 -35 12 -34 14 -165 49 -210 57 -17 3 -46 8 -65 12 -44 8 -73 12 -130 19 -25
3 -65 8 -90 11 -37 5 -9288 13 -9293 8z m9258 -876 c11 -3 40 -9 65 -12 58 -8
76 -11 130 -26 25 -7 50 -13 55 -15 12 -2 54 -19 110 -42 75 -32 180 -105 250
-177 82 -82 138 -165 200 -291 41 -83 117 -298 129 -363 3 -15 7 -37 10 -49 3
-13 8 -32 11 -43 3 -11 7 -29 10 -40 9 -38 65 -276 69 -300 2 -8 7 -33 11 -55
5 -22 9 -44 11 -50 1 -5 7 -32 13 -60 11 -52 13 -64 26 -130 5 -22 9 -44 11
-50 1 -5 5 -26 8 -45 4 -19 9 -42 11 -50 2 -8 6 -31 9 -50 3 -19 8 -46 11 -60
3 -14 7 -41 10 -60 3 -19 7 -46 10 -60 3 -14 8 -40 11 -59 3 -18 7 -43 10 -54
2 -12 6 -39 9 -62 4 -22 9 -53 11 -70 3 -16 7 -39 8 -50 2 -11 6 -33 9 -50 3
-16 9 -54 12 -84 4 -30 8 -62 10 -71 2 -9 6 -41 10 -70 4 -29 8 -61 10 -71 2
-10 6 -44 10 -76 3 -32 8 -69 10 -83 4 -26 16 -117 20 -160 13 -117 19 -177
29 -285 3 -27 7 -72 10 -100 12 -125 31 -369 42 -550 32 -533 36 -1302 9
-1780 -2 -33 -6 -112 -10 -175 -3 -63 -8 -135 -10 -160 -2 -25 -6 -85 -10
-135 -3 -49 -8 -106 -10 -125 -2 -19 -7 -64 -10 -100 -3 -36 -8 -78 -9 -95 -2
-16 -7 -61 -11 -100 -3 -38 -8 -81 -10 -95 -2 -14 -7 -47 -10 -75 -6 -55 -13
-106 -20 -145 -2 -14 -7 -47 -10 -75 -13 -92 -23 -158 -29 -190 -2 -11 -7 -40
-11 -65 -4 -25 -9 -54 -11 -65 -2 -11 -6 -32 -9 -46 -9 -50 -34 -174 -40 -196
-3 -13 -7 -31 -9 -40 -16 -70 -110 -328 -161 -438 -65 -144 -195 -395 -255
-495 -5 -8 -30 -51 -56 -95 -232 -395 -673 -1018 -1008 -1425 -21 -25 -43 -52
-49 -60 -116 -148 -479 -567 -710 -820 -267 -292 -766 -785 -1042 -1029 -152
-135 -380 -321 -530 -432 -55 -41 -104 -78 -110 -82 -143 -111 -678 -447 -712
-447 -6 0 -13 -4 -15 -8 -1 -5 -59 -36 -128 -69 -106 -51 -179 -83 -365 -158
-25 -10 -24 -10 -60 -20 -16 -4 -34 -10 -40 -14 -5 -3 -13 -6 -17 -7 -5 -1 -9
-2 -10 -4 -2 -1 -10 -3 -18 -5 -8 -2 -58 -15 -110 -29 -52 -14 -108 -28 -125
-31 -16 -2 -39 -7 -51 -9 -72 -14 -145 -20 -264 -21 -119 0 -161 3 -270 19
-35 6 -112 22 -138 30 -9 3 -28 7 -42 10 -14 2 -44 11 -68 20 -23 8 -46 16
-50 17 -18 4 -32 9 -107 35 -44 16 -82 29 -85 29 -3 1 -18 7 -35 14 -16 8 -39
17 -50 22 -619 253 -1393 804 -2108 1499 -275 267 -425 422 -685 705 -233 253
-623 706 -745 865 -61 79 -82 106 -87 110 -9 8 -231 298 -306 400 -146 199
-175 240 -293 415 -66 99 -124 185 -129 190 -4 6 -8 12 -8 15 0 3 -21 37 -46
75 -172 263 -373 640 -484 908 -33 80 -112 316 -119 358 -3 18 -7 35 -9 38 -2
3 -7 22 -10 41 -5 33 -9 53 -21 110 -3 14 -7 43 -11 65 -3 22 -8 49 -11 60 -3
11 -7 31 -8 45 -2 23 -12 84 -21 135 -2 10 -6 36 -9 57 -3 21 -7 55 -10 77
-12 83 -16 117 -20 155 -3 21 -7 55 -10 75 -3 20 -7 61 -10 91 -3 30 -7 71
-10 90 -2 19 -7 67 -10 105 -4 39 -8 88 -10 110 -13 130 -27 334 -40 580 -24
412 -23 1163 0 1620 11 218 28 470 40 605 3 25 7 74 10 110 7 80 14 152 20
207 3 23 7 68 10 100 3 32 8 69 10 83 2 14 7 52 10 85 3 33 9 78 12 100 3 22
7 51 8 65 1 14 6 43 9 66 4 23 9 59 11 80 2 21 6 48 9 59 2 11 7 43 10 70 4
28 9 61 11 75 7 52 17 116 20 131 2 9 6 34 10 55 7 49 13 84 25 154 20 115 20
114 35 190 2 14 7 39 10 55 3 17 7 41 10 55 11 53 17 86 20 105 2 11 13 65 25
120 12 55 24 111 27 125 2 14 11 54 19 90 9 36 17 74 20 85 26 133 115 465
139 520 7 17 16 41 20 55 13 43 65 142 120 227 50 75 138 174 210 233 38 31
206 117 259 132 57 16 58 16 86 22 14 3 39 9 55 13 39 8 48 10 125 18 36 4 67
9 69 11 7 7 9244 -1 9266 -8z"/>
<path d="M9958 11745 c-2 -2 -33 -6 -70 -9 -64 -7 -84 -10 -145 -21 -16 -3
-44 -8 -63 -11 -19 -3 -44 -8 -55 -11 -11 -4 -27 -8 -35 -10 -8 -2 -19 -5 -25
-6 -5 -1 -16 -6 -22 -10 -7 -5 -13 -6 -13 -3 0 11 -182 -58 -285 -109 -191
-94 -339 -203 -477 -355 -86 -92 -168 -201 -168 -220 0 -6 -4 -10 -9 -10 -9 0
-140 -255 -144 -280 -2 -8 -5 -19 -9 -25 -18 -30 -64 -206 -93 -355 -15 -76
-20 -166 -20 -345 0 -211 5 -271 30 -385 4 -14 8 -34 10 -45 28 -159 139 -401
252 -552 138 -183 342 -340 557 -429 80 -33 202 -73 246 -80 19 -3 38 -8 41
-10 4 -2 24 -6 44 -10 21 -3 47 -8 59 -10 126 -27 531 -26 656 1 14 3 36 7 50
10 170 32 383 123 530 226 41 29 116 94 167 146 83 84 116 111 98 82 -4 -5 -8
-20 -10 -32 -2 -12 -6 -33 -9 -47 -7 -30 -17 -77 -22 -105 -1 -11 -5 -31 -9
-45 -3 -14 -7 -36 -10 -50 -15 -77 -22 -109 -30 -137 -3 -10 -12 -47 -21 -83
-36 -150 -149 -436 -176 -448 -5 -2 -8 -9 -8 -17 0 -7 -23 -48 -51 -91 -144
-221 -331 -387 -551 -489 -71 -32 -237 -92 -280 -100 -11 -2 -27 -6 -36 -9
-24 -7 -114 -23 -177 -31 -84 -11 -222 -19 -320 -19 -111 0 -313 11 -351 18
-11 2 -45 7 -75 10 -30 3 -64 8 -75 10 -12 2 -37 7 -55 10 -50 8 -72 13 -115
25 -22 6 -44 11 -49 11 -7 0 -10 -131 -10 -375 l0 -374 25 -6 c40 -9 62 -12
120 -20 30 -4 64 -9 75 -11 118 -22 635 -22 830 0 195 22 363 54 491 92 33 10
64 19 69 20 6 1 33 10 60 19 331 114 622 292 850 520 150 150 222 243 360 465
33 54 137 260 130 260 -3 0 1 10 10 23 21 32 122 318 140 396 2 9 13 52 25 96
11 44 23 94 26 110 3 17 9 49 15 73 5 23 12 59 15 78 3 20 8 46 10 58 4 20 13
83 19 136 7 63 16 139 20 175 27 251 27 781 0 998 -3 20 -7 52 -9 70 -5 42
-15 106 -21 137 -3 14 -8 41 -11 60 -3 19 -17 78 -30 130 -14 52 -26 102 -28
111 -8 31 -59 175 -78 219 -125 286 -269 482 -473 647 -33 26 -61 51 -63 56
-2 4 -8 7 -13 7 -5 0 -33 16 -63 35 -87 56 -258 135 -346 160 -50 15 -128 36
-145 40 -11 2 -31 7 -45 10 -32 7 -64 12 -117 20 -23 3 -57 8 -75 11 -34 5
-435 14 -440 9z m302 -700 c325 -60 568 -263 683 -570 58 -157 72 -245 72
-455 -1 -131 -5 -181 -21 -232 -3 -9 -7 -26 -9 -38 -8 -41 -71 -176 -110 -235
-81 -122 -234 -252 -360 -303 -65 -26 -87 -34 -102 -38 -6 -1 -27 -7 -45 -13
-134 -43 -380 -47 -546 -10 -273 60 -477 239 -578 504 -25 67 -28 78 -39 128
-2 12 -7 35 -11 50 -12 58 -15 85 -18 215 -2 115 2 173 18 267 7 38 37 146 48
173 58 143 107 222 197 316 127 132 294 218 474 242 23 4 44 8 45 9 6 6 265
-3 302 -10z"/>
<path d="M6050 11644 c-36 -13 -117 -42 -180 -64 -63 -21 -155 -53 -205 -71
-219 -77 -375 -131 -445 -155 -68 -23 -191 -67 -230 -81 -8 -3 -21 -7 -27 -9
-7 -1 -43 -14 -80 -27 -38 -14 -106 -39 -153 -55 -95 -33 -94 -31 -73 -122 7
-30 15 -68 17 -85 3 -16 10 -55 16 -85 6 -30 13 -66 16 -80 3 -14 14 -70 25
-125 28 -133 28 -135 34 -170 8 -45 16 -85 18 -85 1 0 272 90 601 200 329 110
599 200 600 200 1 0 1 -790 1 -1755 0 -1165 -3 -1755 -10 -1756 -5 -1 -300 -2
-655 -3 -355 -1 -650 -4 -655 -8 -7 -4 -10 -140 -10 -380 l0 -373 1675 -1
c921 0 1680 1 1685 3 7 2 10 135 10 381 l0 377 -583 0 -582 0 0 2177 0 2178
-372 -1 c-367 -1 -374 -2 -438 -25z"/>
</g>
</svg>
